<svg id="Camada_1" data-name="Camada 1" xmlns="http://www.w3.org/2000/svg" viewBox="0 0 50 50"><defs><style>.cls-1{fill:#6c3;}</style></defs><title>icon_carrinho</title><g id="logo"><path class="cls-1" d="M11.44,13.45h0a.54.54,0,0,0,.37-.66L10.1,6.69A4.31,4.31,0,0,0,6,3.54H2.29a.53.53,0,0,0-.53.53h0a.54.54,0,0,0,.53.54H5.58A3.75,3.75,0,0,1,9.19,7.37l1.6,5.71A.53.53,0,0,0,11.44,13.45Z"/><path class="cls-1" d="M10.78,13.88a1.08,1.08,0,0,1-.52-.65L8.67,7.52A3.24,3.24,0,0,0,5.58,5.15H2.29A1.08,1.08,0,0,1,2.29,3H6a4.86,4.86,0,0,1,4.65,3.55l1.7,6.1A1.08,1.08,0,0,1,11.59,14h0a1,1,0,0,1-.29,0A1.06,1.06,0,0,1,10.78,13.88ZM9.52,6.66A3.76,3.76,0,0,0,6.07,4.09,4.32,4.32,0,0,1,9.52,6.66Z"/><path class="cls-1" d="M48.45,40.81v-.1a.55.55,0,0,0-.52-.58L17.1,38.48A2.07,2.07,0,0,1,15.2,37a2.1,2.1,0,0,1,.41-2,.57.57,0,0,0,0-.72l-.06-.07a.56.56,0,0,0-.86,0A3.32,3.32,0,0,0,17,39.68l30.83,1.65A.56.56,0,0,0,48.45,40.81Z"/><path class="cls-1" d="M47.84,41.88,17,40.23a3.86,3.86,0,0,1-2.68-6.4,1.1,1.1,0,0,1,1.71.06l.06.07A1.12,1.12,0,0,1,16,35.37a1.53,1.53,0,0,0-.29,1.46,1.51,1.51,0,0,0,1.4,1.11L48,39.58a1.13,1.13,0,0,1,.76.37,1.14,1.14,0,0,1,.28.79v.1a1.08,1.08,0,0,1-.36.76,1.09,1.09,0,0,1-.73.28Zm.06-1.2L17.07,39a2.61,2.61,0,0,1-2.39-1.88,2.64,2.64,0,0,1,.52-2.51,0,0,0,0,0,0,0l-.07-.07a2.77,2.77,0,0,0,1.92,4.59L47.9,40.78h0Z"/><path class="cls-1" d="M16.67,35.14H46A2.26,2.26,0,0,0,48.21,33l.4-12c0-3.11-2.62-6.23-5.57-6.35a1.84,1.84,0,0,1-.33,0l-29-5.42A2.31,2.31,0,0,0,11,11.9l3.41,21.34A2.25,2.25,0,0,0,16.67,35.14Z"/><circle class="cls-1" cx="42.03" cy="44.1" r="2.73"/><circle class="cls-1" cx="18.85" cy="43.34" r="3.31"/><path class="cls-1" d="M18.22,33.06H44.07a2,2,0,0,0,2-1.85l.36-10.15a5.56,5.56,0,0,0-4.92-5.38l-.29,0-25.58-4.6a2,2,0,0,0-2.37,2.31l3,18.09A2,2,0,0,0,18.22,33.06Z"/><path class="cls-1" d="M38.18,44.1A3.85,3.85,0,1,1,42,48,3.86,3.86,0,0,1,38.18,44.1Zm1.13,0A2.73,2.73,0,1,0,42,41.37,2.73,2.73,0,0,0,39.31,44.1Z"/><path class="cls-1" d="M14.41,43.34a4.44,4.44,0,1,1,4.44,4.44A4.44,4.44,0,0,1,14.41,43.34Zm1.13,0A3.31,3.31,0,1,0,18.85,40,3.31,3.31,0,0,0,15.54,43.34Z"/><path class="cls-1" d="M14.05,33.84,9.82,11.67A2.67,2.67,0,0,1,12.9,8.54L43.67,14A6.43,6.43,0,0,1,49,20.33v13A2.66,2.66,0,0,1,46.31,36H16.66A2.67,2.67,0,0,1,14.05,33.84ZM11.47,10.22a1.34,1.34,0,0,0-.37,1.2l4.23,22.17a1.35,1.35,0,0,0,1.33,1.1H46.31a1.35,1.35,0,0,0,1.35-1.35v-13a5.1,5.1,0,0,0-4.22-5L12.67,9.83l-.24,0A1.32,1.32,0,0,0,11.47,10.22Z"/></g></svg>