<svg id="Camada_1" data-name="Camada 1" xmlns="http://www.w3.org/2000/svg" viewBox="0 0 69 41"><defs><style>.cls-1{fill:#6c3;}</style></defs><title>icon_carro</title><circle class="cls-1" cx="14.48" cy="33.93" r="6.87"/><circle class="cls-1" cx="50.33" cy="33.93" r="6.87"/><path class="cls-1" d="M2.92,36.21l2,0a10,10,0,0,1-.26-2.64A9.81,9.81,0,1,1,24,36l16.69-.16a10.51,10.51,0,0,1-.19-2,9.82,9.82,0,0,1,19.63-.15A10.16,10.16,0,0,1,60,35.66l1.73,0s6.42.36,6.42-9.06c0-6.67-6.09-9.52-9.64-10.61a7.59,7.59,0,0,1-4-2.88C45.46.29,30,.1,30,.1,5.06-.9,2.92,20.51,2.92,20.51-3.65,30,2.92,36.21,2.92,36.21ZM28.54,4.81h7.92A11.14,11.14,0,0,1,47.6,16h-17a2.09,2.09,0,0,1-2.08-2.09ZM10.13,16A11.13,11.13,0,0,1,21.26,4.81h2.21V16Z"/></svg>