<svg id="Camada_1" data-name="Camada 1" xmlns="http://www.w3.org/2000/svg" viewBox="0 0 111 76"><defs><style>.cls-1{fill:#6c3;}.cls-2{fill:#fff;}</style></defs><title>logo_gree_</title><rect class="cls-1" width="111" height="76"/><path class="cls-2" d="M27.49,52a10.39,10.39,0,0,1-3.14,7.51,11.1,11.1,0,0,1-3.55,2.31,11,11,0,0,1-8.29,0A10.57,10.57,0,0,1,9,59.54a10.26,10.26,0,0,1-2.37-3.43A10.41,10.41,0,0,1,9,44.51a10.7,10.7,0,0,1,3.5-2.3,11,11,0,0,1,11.84,2.3A10.39,10.39,0,0,1,27.49,52ZM16.66,58a4.84,4.84,0,0,0,3.8-1.69A6.19,6.19,0,0,0,22,52a6.1,6.1,0,0,0-1.52-4.25,4.83,4.83,0,0,0-3.78-1.7,4.83,4.83,0,0,0-3.79,1.69A6.15,6.15,0,0,0,11.36,52a6.23,6.23,0,0,0,1.48,4.27A4.88,4.88,0,0,0,16.66,58Z"/><path class="cls-2" d="M30.6,62.12v-14h4.51V51a6.76,6.76,0,0,1,2.27-2.49,5.77,5.77,0,0,1,3.09-.79,6.28,6.28,0,0,1,2.41.43,3.92,3.92,0,0,1,2.51,3,14.06,14.06,0,0,1,.24,3v8H40.69V54.63a4.21,4.21,0,0,0-.55-2.44,2,2,0,0,0-1.75-.76,2.44,2.44,0,0,0-2.24,1.14,7.22,7.22,0,0,0-.71,3.68v5.87Z"/><path class="cls-2" d="M49.45,62.12V41.86H55a34.25,34.25,0,0,1,4.79.22,7.3,7.3,0,0,1,2.35.76,4.23,4.23,0,0,1,1.71,1.67,4.83,4.83,0,0,1,.59,2.41,4.11,4.11,0,0,1-.88,2.75,5.53,5.53,0,0,1-2.8,1.54,4.83,4.83,0,0,1,3.37,1.52,5.13,5.13,0,0,1,1.22,3.6,5.83,5.83,0,0,1-.68,2.85,4.75,4.75,0,0,1-2,1.91,7.88,7.88,0,0,1-2.56.79,36.1,36.1,0,0,1-5,.24ZM54.57,50h1.11a6.08,6.08,0,0,0,2.81-.45A1.67,1.67,0,0,0,59.25,48a1.8,1.8,0,0,0-.71-1.62,5.65,5.65,0,0,0-2.78-.46H54.57Zm0,8h1.94a5.68,5.68,0,0,0,2.78-.49,1.78,1.78,0,0,0,.82-1.64,2,2,0,0,0-.75-1.78,5.28,5.28,0,0,0-2.77-.51h-2Z"/><path class="cls-2" d="M83.31,48.14v14H78.79V59.85A6.47,6.47,0,0,1,76.61,62a5.76,5.76,0,0,1-2.84.68,5.47,5.47,0,0,1-4.47-2,8.38,8.38,0,0,1-1.68-5.48,8,8,0,0,1,1.75-5.43,5.94,5.94,0,0,1,4.71-2,5.23,5.23,0,0,1,2.72.67,5.53,5.53,0,0,1,2,2.07v-2.3Zm-4.33,7a3.68,3.68,0,0,0-.87-2.58,3.43,3.43,0,0,0-4.75,0,4.28,4.28,0,0,0,0,5.17,3.47,3.47,0,0,0,4.75,0A3.66,3.66,0,0,0,79,55.11Z"/><path class="cls-2" d="M102,48.14v14a5.58,5.58,0,0,1-1.94,4.68q-1.92,1.52-6,1.52A9.3,9.3,0,0,1,89,67.08a4.13,4.13,0,0,1-2-3.43h5.1a1.43,1.43,0,0,0,.73,1A3.2,3.2,0,0,0,94.5,65a2.65,2.65,0,0,0,2.19-.77,5.79,5.79,0,0,0,.6-3.23V59.76a5,5,0,0,1-2,2,6,6,0,0,1-2.86.65,5.49,5.49,0,0,1-4.44-2A8.06,8.06,0,0,1,86.33,55a7.85,7.85,0,0,1,1.75-5.35,6,6,0,0,1,4.71-2,5.31,5.31,0,0,1,2.71.65,5.5,5.5,0,0,1,2,2V48.14Zm-4.34,7a3.54,3.54,0,0,0-.86-2.54,3.1,3.1,0,0,0-2.39-.92,3.14,3.14,0,0,0-2.41.92,4.09,4.09,0,0,0,0,5.07,3.15,3.15,0,0,0,2.41.93,3.1,3.1,0,0,0,2.38-.93A3.55,3.55,0,0,0,97.69,55.09Z"/><path class="cls-2" d="M77.63,18.85a1,1,0,0,1-1.19-.56,5,5,0,0,0-2.36-2.71,5.4,5.4,0,0,0-3.35-.32,1,1,0,0,1-1.1-.6h0a1,1,0,0,1,.72-1.32,7.33,7.33,0,0,1,4.59.48,6.85,6.85,0,0,1,3.31,3.73,1,1,0,0,1-.62,1.3Z"/><path class="cls-2" d="M68.62,10.78h0a1,1,0,0,1,.73-1.26,12.05,12.05,0,0,1,7.91.9h0A10.18,10.18,0,0,1,82,16.24a1,1,0,0,1-.65,1.27h0a1,1,0,0,1-1.19-.61,8.33,8.33,0,0,0-3.83-4.75,10.23,10.23,0,0,0-6.62-.71A1,1,0,0,1,68.62,10.78Z"/><path class="cls-2" d="M85.51,16.16a1,1,0,0,1-1.24-.54c-2-4.65-5.19-7.47-9.65-8.37a16.24,16.24,0,0,0-5.85,0,1,1,0,0,1-1.11-.7h0a1,1,0,0,1,.77-1.22,18.2,18.2,0,0,1,6.5.05c3.6.71,8.37,2.95,11.14,9.54a1,1,0,0,1-.56,1.3Z"/><path class="cls-2" d="M30.5,35.45h-5l-1.16-8.51c-.08-.6-.15-1.27-.22-2s-.13-1.54-.18-2.41a26.72,26.72,0,0,1-.74,3.12l-.18.58-2.67,9.22H16.76l-2.68-9.22c0-.13-.09-.32-.16-.58a23.08,23.08,0,0,1-.74-3.11q-.07,1.13-.18,2.22c-.08.73-.16,1.45-.26,2.18l-1.16,8.51h-5l3-19.68h5.31l3,10.15a3.09,3.09,0,0,0,.1.35,12.77,12.77,0,0,1,.53,2.32,8.58,8.58,0,0,1,.2-1.16c.1-.42.23-.94.4-1.54l3-10.12h5.33Z"/><path class="cls-2" d="M47.62,21.87V35.45h-4.4v-2.2a6.3,6.3,0,0,1-2.12,2.07,5.53,5.53,0,0,1-2.76.66A5.3,5.3,0,0,1,34,34a8.08,8.08,0,0,1-1.63-5.31,7.77,7.77,0,0,1,1.7-5.28,5.75,5.75,0,0,1,4.58-2,5.17,5.17,0,0,1,2.64.65,5.44,5.44,0,0,1,1.9,2V21.87Zm-4.21,6.78a3.58,3.58,0,0,0-.85-2.52,3,3,0,0,0-2.31-.92,3,3,0,0,0-2.31.92,3.59,3.59,0,0,0-.84,2.52,3.55,3.55,0,0,0,.85,2.5,3.37,3.37,0,0,0,4.61,0A3.51,3.51,0,0,0,43.41,28.65Z"/><path class="cls-2" d="M51.26,35.45V21.87h4.52v3.2a5.78,5.78,0,0,1,1.91-2.62,4.89,4.89,0,0,1,2.93-.87,5.43,5.43,0,0,1,.57,0,5.9,5.9,0,0,1,.59.06L61.32,26a4.58,4.58,0,0,0-.85-.21,4.4,4.4,0,0,0-.8-.07A3.42,3.42,0,0,0,57,26.8a4.42,4.42,0,0,0-.95,3v5.62Z"/><path class="cls-2" d="M63.57,35.45V14.61h4.7V27.8l4.94-5.93h5.94l-6.1,6.54,6.65,7H73.39l-5.12-6v6Z"/><path class="cls-2" d="M94.29,29.62H84A3.46,3.46,0,0,0,84.77,32,2.92,2.92,0,0,0,87,32.9a3.81,3.81,0,0,0,1.83-.41A2.7,2.7,0,0,0,90,31.27l3.6,1.45a4.7,4.7,0,0,1-2.29,2.41,8.72,8.72,0,0,1-4,.85,8.1,8.1,0,0,1-5.69-2,6.74,6.74,0,0,1-2.14-5.2,7.06,7.06,0,0,1,2.14-5.27A7.44,7.44,0,0,1,87,21.44a6.85,6.85,0,0,1,5.32,2.13,8.26,8.26,0,0,1,2,5.82Zm-4.72-2.71a2.87,2.87,0,0,0-.88-1.85,2.58,2.58,0,0,0-1.84-.7A2.61,2.61,0,0,0,85,25a3.28,3.28,0,0,0-.92,1.91Z"/><path class="cls-2" d="M97.77,35.45V25.26h-2V21.87h2V17.82h4.72v4.05h2v3.39h-2V35.45Z"/></svg>